<svg xmlns="http://www.w3.org/2000/svg" width="290" height="70"><defs><linearGradient id="PSgrad_0" x1="0%" x2="100%" y1="0%" y2="0%"><stop offset="0%" stop-color="#253A4B"/><stop offset="100%" stop-color="#507DA0"/></linearGradient></defs><path fill-rule="evenodd" fill="#333" d="M289.669 56.316h-8.645l-4-5.656-4.001 5.656h-8.599l8.323-11.726-8.001-11.266h8.599l3.679 5.196 3.679-5.196h8.644l-8.001 11.266 8.323 11.726zm-26.226-2.851c-2.346 2.345-5.243 3.494-8.691 3.494-3.449 0-6.346-1.149-8.691-3.494-2.391-2.345-3.587-5.242-3.587-8.645 0-3.403 1.196-6.254 3.587-8.599 2.437-2.345 5.334-3.541 8.691-3.541 3.448 0 6.345 1.196 8.691 3.541 2.391 2.345 3.586 5.196 3.586 8.599 0 3.403-1.195 6.3-3.586 8.645zm-5.334-12.094c-.874-.874-2.024-1.333-3.357-1.333-1.334 0-2.391.459-3.265 1.333-.874.92-1.334 2.069-1.334 3.449 0 1.379.46 2.529 1.334 3.449.874.873 1.931 1.333 3.265 1.333 1.333 0 2.483-.46 3.357-1.333.873-.874 1.287-2.024 1.287-3.449 0-1.426-.414-2.575-1.287-3.449zm-24.419 2.161c0-2.437-1.149-3.632-3.448-3.632-2.53 0-3.771 1.379-3.771 4.184v12.232h-7.633V24.127h7.633v11.496c1.379-1.977 3.495-2.943 6.392-2.943 2.529 0 4.598.828 6.115 2.529 1.564 1.794 2.346 4.231 2.346 7.358v13.749h-7.634V43.532zm-31.852 4.093c.782 1.885 2.483 2.805 5.15 2.805 1.61 0 3.035-.552 4.185-1.61l5.518 3.863c-2.253 2.851-5.518 4.276-9.887 4.276-3.908 0-7.035-1.149-9.38-3.402-2.345-2.299-3.495-5.196-3.495-8.691 0-3.449 1.15-6.346 3.449-8.691 2.299-2.345 5.242-3.495 8.783-3.495 3.448 0 6.253 1.15 8.507 3.449 2.253 2.253 3.356 5.15 3.356 8.645 0 1.057-.092 2.023-.322 2.851h-15.864zm4.415-8.507c-2.346 0-3.863 1.058-4.507 3.219h8.829c-.598-2.161-2.023-3.219-4.322-3.219zm-25.231 27.084c-5.472 0-9.243-1.885-11.312-5.61l6.346-3.679c1.103 1.748 2.713 2.622 4.874 2.622 1.426 0 2.529-.368 3.357-1.058.874-.736 1.287-1.747 1.287-3.081v-2.207c-1.563 1.885-3.724 2.851-6.437 2.851-3.173 0-5.794-1.15-7.863-3.403-2.07-2.253-3.081-5.012-3.081-8.277 0-3.265 1.011-6.024 3.081-8.277 2.069-2.253 4.69-3.403 7.863-3.403 2.713 0 4.874.966 6.437 2.851v-2.207h7.542v22.072c0 3.541-1.242 6.3-3.771 8.277-2.207 1.701-4.966 2.529-8.323 2.529zm3.173-25.245c-.874-.919-2.023-1.379-3.495-1.379-1.425 0-2.621.46-3.541 1.379-.873.874-1.333 2.024-1.333 3.403 0 1.334.46 2.483 1.333 3.449.966.873 2.116 1.333 3.541 1.333 1.426 0 2.621-.46 3.495-1.333.92-.92 1.379-2.07 1.379-3.449 0-1.425-.459-2.529-1.379-3.403zM159.869 54.2c-1.564 1.84-3.725 2.759-6.53 2.759-3.081 0-5.656-1.149-7.725-3.448-2.069-2.345-3.081-5.242-3.081-8.691 0-3.495 1.012-6.392 3.081-8.645 2.069-2.345 4.644-3.495 7.725-3.495 2.805 0 4.966.92 6.53 2.759V24.127h7.633v32.189h-7.633V54.2zm-1.334-13.013c-.874-.92-2.023-1.379-3.495-1.379-1.425 0-2.621.459-3.494 1.379-.874.966-1.334 2.161-1.334 3.633 0 1.471.46 2.667 1.334 3.633.873.919 2.069 1.379 3.494 1.379 1.472 0 2.621-.46 3.495-1.379.874-.966 1.334-2.162 1.334-3.633 0-1.472-.46-2.667-1.334-3.633zm-32.726 6.438c.782 1.885 2.483 2.805 5.15 2.805 1.61 0 3.035-.552 4.185-1.61l5.518 3.863c-2.253 2.851-5.518 4.276-9.887 4.276-3.908 0-7.035-1.149-9.38-3.402-2.345-2.299-3.495-5.196-3.495-8.691 0-3.449 1.15-6.346 3.449-8.691 2.299-2.345 5.242-3.495 8.783-3.495 3.448 0 6.253 1.15 8.507 3.449 2.253 2.253 3.356 5.15 3.356 8.645 0 1.057-.092 2.023-.321 2.851h-15.865zm4.415-8.507c-2.345 0-3.863 1.058-4.507 3.219h8.829c-.598-2.161-2.023-3.219-4.322-3.219zm-20.801 4.414c0-2.437-1.15-3.632-3.449-3.632-2.529 0-3.771 1.379-3.771 4.184v12.232H94.57V24.127h7.633v11.496c1.38-1.977 3.495-2.943 6.392-2.943 2.529 0 4.599.828 6.116 2.529 1.563 1.794 2.345 4.231 2.345 7.358v13.749h-7.633V43.532z"/><path fill-rule="evenodd" fill="#CBCBCB" d="M44.286 68.225s-.842-7.681 5.888-14.096c8.359-7.453 18.378-4.996 18.378-4.996s-2.987 5.873-6.245 9.635c-7.478 8.213-18.021 9.457-18.021 9.457z"/><path fill-rule="evenodd" d="M77.294 42.174a3.39 3.39 0 110-6.78 3.39 3.39 0 010 6.78zM63.912 26.83c-1.693-.739-3.547-2.213-6.423-1.428-1.243-1.843-3.598-2.872-5.847-2.913-2.249-.042-4.444.984-5.572 2.021-1.438 1.323-2.041 2.759-2.141 4.996-.083 1.86 1.784 5.71 1.784 5.71s-3.276-.126-6.78.714c-1.74.417-4.66.644-4.818 2.676-.127 1.12-.424 1.782 1.428 1.784 1.965.002 2.843-1.541 7.137-1.963 3.682-.043 6.978 1.393 6.423 1.606-2.693 1.038-5.304 2.355-7.672 4.104-2.369 1.75-3.732 4.27-4.996 6.423-.095.75.014 1.667 1.427 1.606 1.414-.06 1.478-2.34 3.033-3.568 1.556-1.228 5.081-2.374 4.818-1.784-2.706 2.705-4.601 4.358-7.315 12.668-1.181 3.049-.179 9.813-.179 9.813s-2.557.111-4.986-.122c-2.199-.212-4.292-.77-4.292-.77s-.436-3.145-.357-4.817c.079-1.672 1.15-6.639 1.427-7.494.278-.856 1.232-2.064 1.249-2.498.018-.435-.744-1.383-1.249-1.428-.504-.044-1.356.432-2.676 3.034-2.072 3.608-2.093 12.1-2.141 12.133-.026.017-1.995-.521-3.775-1.343-1.463-.676-2.8-1.66-2.827-1.691-.06-.068-.364-3.397.179-6.066.323-1.409 1.924-4.884 2.854-6.424.931-1.539 2.838-4.137 6.602-5.531.627-.532 1.679-1.707.357-2.676-.443-.437-2.697.186-3.747.892-1.05.706-4.864 4.186-5.71 5.353-3.973 4.412-3.788 10.119-4.103 10.527-.316.408-1.66.978-2.32.892-.66-.086-.997-.881-1.249-1.249-.252-.367-.804-3.663.179-7.494.777-4.41 3.88-7.324 3.746-7.672-.133-.349-1.684-.258-4.46 1.249-2.965 1.753-4.238 5.531-4.639 5.888-.402.357-1.361.682-1.963.535-.602-.147-1.051-1.443-1.071-1.963-.019-.519.97-4.435 4.283-9.456 2.031-3.607 9.219-6.306 9.099-6.78-.119-.475-2.439-.365-3.39-.357-.95.008-2.221-.198-4.46.714-3.412 1.26-5.905 4.19-6.424 4.282-.518.092-1.324-.178-1.606-.357-.281-.18-.838-.985-.535-1.606 1.65-2.939 5.806-6.617 7.137-7.672 7.018-4.872 13.974-4.244 14.096-4.639.122-.396-2.93-2.489-6.245-2.498-5.176-.011-7.743 1.905-8.208 1.962-.464.058-1.505-.162-1.784-.713-.279-.551-.506-1.222-.178-1.785 2.14-1.843 5.533-3.639 7.494-4.282 1.96-.643 3.399-1.336 9.813-1.784 4.733.072 9.256 1.961 9.278 1.427a14.67 14.67 0 00-5.353-4.46c-3.3-1.553-7.666-1.133-8.207-1.249-.542-.117-.869-.37-.892-.892-.024-.523.136-1.958.713-2.142.578-.183 5.926-1.027 7.494-1.07 1.568-.044 4.743.299 6.781.714 2.038.414 5.772 1.826 8.742 3.568 2.606 1.248 4.11 3.415 4.461 3.033.351-.382-2.15-5.353-3.925-6.78-3.423-2.974-6.449-3.021-6.78-3.39-.332-.369-.654-1.712-.536-2.141.119-.429 1.118-1.296 1.785-1.249.666.046 8.952 1.818 14.987 7.494 5.315 3.609 8.026 13.076 8.386 13.025.361-.051.471-1.863.179-5.174-.18-4.025-3.765-8.105-3.747-8.922.018-.817.814-2.356 2.141-1.606 1.573 1.475 9.947 8.879 10.884 23.374-.099.244-3.124-1.58-4.818-2.319zm-16.415 2.855c.02-3.74 2.519-3.609 3.926-3.569 3.177.071 3.891 1.769 3.747 2.141-.145.372-3.153-.246-3.926 1.071-.772 1.317-.169 4.189-.535 4.282-.366.093-3.089-.643-3.212-3.925zm12.847 3.747c1.38 0 2.498 1.158 2.498 2.587 0 1.429-1.118 2.587-2.498 2.587-1.38 0-2.498-1.158-2.498-2.587 0-1.429 1.118-2.587 2.498-2.587z"/><path fill="url(#PSgrad_0)" d="M77.294 42.174a3.39 3.39 0 110-6.78 3.39 3.39 0 010 6.78zM63.912 26.83c-1.693-.739-3.547-2.213-6.423-1.428-1.243-1.843-3.598-2.872-5.847-2.913-2.249-.042-4.444.984-5.572 2.021-1.438 1.323-2.041 2.759-2.141 4.996-.083 1.86 1.784 5.71 1.784 5.71s-3.276-.126-6.78.714c-1.74.417-4.66.644-4.818 2.676-.127 1.12-.424 1.782 1.428 1.784 1.965.002 2.843-1.541 7.137-1.963 3.682-.043 6.978 1.393 6.423 1.606-2.693 1.038-5.304 2.355-7.672 4.104-2.369 1.75-3.732 4.27-4.996 6.423-.095.75.014 1.667 1.427 1.606 1.414-.06 1.478-2.34 3.033-3.568 1.556-1.228 5.081-2.374 4.818-1.784-2.706 2.705-4.601 4.358-7.315 12.668-1.181 3.049-.179 9.813-.179 9.813s-2.557.111-4.986-.122c-2.199-.212-4.292-.77-4.292-.77s-.436-3.145-.357-4.817c.079-1.672 1.15-6.639 1.427-7.494.278-.856 1.232-2.064 1.249-2.498.018-.435-.744-1.383-1.249-1.428-.504-.044-1.356.432-2.676 3.034-2.072 3.608-2.093 12.1-2.141 12.133-.026.017-1.995-.521-3.775-1.343-1.463-.676-2.8-1.66-2.827-1.691-.06-.068-.364-3.397.179-6.066.323-1.409 1.924-4.884 2.854-6.424.931-1.539 2.838-4.137 6.602-5.531.627-.532 1.679-1.707.357-2.676-.443-.437-2.697.186-3.747.892-1.05.706-4.864 4.186-5.71 5.353-3.973 4.412-3.788 10.119-4.103 10.527-.316.408-1.66.978-2.32.892-.66-.086-.997-.881-1.249-1.249-.252-.367-.804-3.663.179-7.494.777-4.41 3.88-7.324 3.746-7.672-.133-.349-1.684-.258-4.46 1.249-2.965 1.753-4.238 5.531-4.639 5.888-.402.357-1.361.682-1.963.535-.602-.147-1.051-1.443-1.071-1.963-.019-.519.97-4.435 4.283-9.456 2.031-3.607 9.219-6.306 9.099-6.78-.119-.475-2.439-.365-3.39-.357-.95.008-2.221-.198-4.46.714-3.412 1.26-5.905 4.19-6.424 4.282-.518.092-1.324-.178-1.606-.357-.281-.18-.838-.985-.535-1.606 1.65-2.939 5.806-6.617 7.137-7.672 7.018-4.872 13.974-4.244 14.096-4.639.122-.396-2.93-2.489-6.245-2.498-5.176-.011-7.743 1.905-8.208 1.962-.464.058-1.505-.162-1.784-.713-.279-.551-.506-1.222-.178-1.785 2.14-1.843 5.533-3.639 7.494-4.282 1.96-.643 3.399-1.336 9.813-1.784 4.733.072 9.256 1.961 9.278 1.427a14.67 14.67 0 00-5.353-4.46c-3.3-1.553-7.666-1.133-8.207-1.249-.542-.117-.869-.37-.892-.892-.024-.523.136-1.958.713-2.142.578-.183 5.926-1.027 7.494-1.07 1.568-.044 4.743.299 6.781.714 2.038.414 5.772 1.826 8.742 3.568 2.606 1.248 4.11 3.415 4.461 3.033.351-.382-2.15-5.353-3.925-6.78-3.423-2.974-6.449-3.021-6.78-3.39-.332-.369-.654-1.712-.536-2.141.119-.429 1.118-1.296 1.785-1.249.666.046 8.952 1.818 14.987 7.494 5.315 3.609 8.026 13.076 8.386 13.025.361-.051.471-1.863.179-5.174-.18-4.025-3.765-8.105-3.747-8.922.018-.817.814-2.356 2.141-1.606 1.573 1.475 9.947 8.879 10.884 23.374-.099.244-3.124-1.58-4.818-2.319zm-16.415 2.855c.02-3.74 2.519-3.609 3.926-3.569 3.177.071 3.891 1.769 3.747 2.141-.145.372-3.153-.246-3.926 1.071-.772 1.317-.169 4.189-.535 4.282-.366.093-3.089-.643-3.212-3.925zm12.847 3.747c1.38 0 2.498 1.158 2.498 2.587 0 1.429-1.118 2.587-2.498 2.587-1.38 0-2.498-1.158-2.498-2.587 0-1.429 1.118-2.587 2.498-2.587z"/></svg>